<svg width="1440" height="960" viewBox="0 0 1440 960" fill="none" xmlns="http://www.w3.org/2000/svg">
<g clip-path="url(#clip0_448_425)">
<rect width="1440" height="960" fill="white"/>
<path d="M1440 0H0V960H1440V0Z" fill="url(#paint0_linear_448_425)"/>
<path d="M1440 816.173H0V960H1440V816.173Z" fill="#B9AA11"/>
<path d="M0 833.376H1440V860.736L1.4016 888.096L3.0144 845.914" fill="#9B8C0F"/>
<path d="M533.818 960L1439.81 917.222L1440 960H533.818Z" fill="#AB9A11"/>
<path d="M1.4016 917.222L1439.81 888.096V898.56L86.5344 960H0L1.4016 917.222Z" fill="#AB9A11"/>
<path d="M901.215 751.571C898.764 757.154 896.381 762.6 894.135 767.775C892.16 775.672 888.756 782.753 884.739 789.629C883.446 794.667 885.965 794.871 890.867 792.216L900.943 777.374C903.734 779.757 905.709 783.842 907.343 788.812L904.619 811.551C905.3 815.977 907.07 815.5 909.317 813.049L913.334 792.42L913.674 814.547C915.24 816.385 916.534 815.772 917.623 812.777L918.917 806.377C920.006 808.692 921.163 808.283 922.321 805.901C922.321 805.901 923.138 779.212 923.138 778.804C923.138 778.395 914.423 747.69 914.423 747.69L911.087 741.086L897.811 744.763L901.215 751.571Z" fill="#FFD391"/>
<path d="M900.262 671.643C898.832 657.346 898.764 642.504 897.13 625.279C895.836 610.233 890.934 599.884 884.467 593.485C866.765 587.698 848.179 606.965 858.119 623.849C862.408 640.121 861.863 659.728 866.357 682.672C878.475 685.327 891.479 680.63 900.262 671.643Z" fill="#EA4A49"/>
<path d="M902.238 685.668C901.353 681.038 900.74 676.341 900.264 671.643C891.481 680.63 878.477 685.259 866.359 682.604C866.835 684.919 867.244 687.166 867.789 689.549C876.163 715.556 886.511 727.266 898.426 756.814C900.264 759.673 916.74 757.018 916.127 753.954C910.476 726.109 904.621 707.727 902.238 685.668Z" fill="#FFD391"/>
<path d="M777.783 781.527C778.123 781.527 778.463 781.255 778.531 780.847L779.348 774.923C779.485 773.97 779.212 772.949 778.531 772.2C777.851 771.451 776.966 771.043 775.944 771.043H767.162C765.528 771.043 764.098 772.2 763.826 773.834L762.464 780.847C762.396 781.255 762.668 781.664 763.077 781.732C763.485 781.8 763.894 781.527 763.962 781.119L765.324 774.106C765.46 773.221 766.209 772.609 767.162 772.609H775.944C776.489 772.609 776.966 772.813 777.374 773.221C777.714 773.63 777.919 774.175 777.783 774.719L776.966 780.642C776.897 781.051 777.238 781.459 777.646 781.527C777.714 781.527 777.783 781.527 777.783 781.527Z" fill="#B2B2B2"/>
<path d="M802.497 669.26C799.433 681.379 772.813 749.324 769.75 761.988C768.933 765.324 768.047 769.068 767.162 772.472C766.958 773.289 767.639 774.038 768.524 773.902C770.907 773.562 773.29 773.63 775.264 773.902C775.877 773.97 776.422 773.63 776.558 773.017C777.239 770.089 778.056 766.89 778.736 764.098C781.936 750.89 808.761 682.196 812.028 669.192H802.497V669.26Z" fill="#332821"/>
<path d="M877.727 826.121C873.642 849.473 858.528 901.624 858.528 901.624C825.44 944.379 808.352 958.2 773.153 1011.44C763.009 1025.12 740.61 1010.49 742.312 992.173C762.532 931.58 792.488 897.675 811.211 859.822L831.567 782.14L882.289 752.865C882.221 752.865 885.012 784.795 877.727 826.121Z" fill="#2B6582"/>
<path d="M904.552 1078.43C901.624 1085.1 888.144 1091.23 878.612 1089.8C874.459 1089.19 871.123 1087.15 869.762 1083.06C842.869 1002.25 843.754 947.171 842.869 943.494L793.986 846.478C789.493 840.963 785.817 833.133 783.502 824.351L782.821 821.491C780.03 809.169 779.757 795.28 783.229 782.685L882.221 752.865V772.132C880.791 794.871 870.987 819.381 854.988 827.483L886.714 928.721C895.02 972.361 901.216 1026.69 904.552 1078.43Z" fill="#3A7D9E"/>
<path opacity="0.5" d="M878.68 1089.8C874.527 1089.19 871.19 1087.15 869.829 1083.06C842.936 1002.25 843.822 947.171 842.936 943.494L794.054 846.477C789.56 840.963 785.884 833.133 783.569 824.351L782.888 821.491L816.316 813.662C818.631 859.617 829.048 902.781 856.212 940.09C847.294 978.216 860.842 1032.41 878.68 1089.8Z" fill="#2B6582"/>
<path d="M768.66 682.4C770.362 701.531 783.366 806.718 783.366 806.718C803.041 828.3 890.527 804.471 885.761 778.395C876.91 729.785 893.25 643.865 886.782 597.093C885.352 590.625 865.132 580.753 849.541 586.404C838.852 590.285 837.15 589.672 815.909 599.272C800.182 609.348 777.783 622.964 766.005 636.24C765.528 641.346 766.685 660.001 768.66 682.4Z" fill="#EA4A49"/>
<path opacity="0.5" d="M781.119 777.578C781.8 779.349 782.549 781.051 783.298 782.617C783.23 782.821 783.162 782.957 783.162 783.161C788.404 788.948 797.459 791.399 808.08 791.467C809.033 790.923 810.054 790.378 811.28 789.969C790.174 772.472 786.021 714.262 795.553 672.732L768.728 682.4C771.792 717.462 777.034 761.647 781.119 777.578Z" fill="#EA4A49"/>
<path d="M826.666 816.113L821.083 848.248L817.338 869.694L816.794 872.757L816.453 874.936L816.521 875.889C816.113 875.821 815.636 875.753 815.636 875.753C815.364 875.685 786.293 869.217 786.293 869.217L783.57 868.604L779.893 867.787L761.511 863.702C757.767 862.885 755.179 859.277 755.588 855.396L758.039 833.746L759.469 820.743L760.218 814.002L761.034 806.582L790.106 810.735L820.266 815.092C820.266 815.16 822.376 815.432 822.376 815.432L823.33 815.568L826.666 816.113Z" fill="#332821"/>
<path d="M842.528 796.914C843.141 793.169 843.345 791.195 839.6 789.629C826.392 784.319 789.901 779.825 773.152 776.557C767.365 775.468 761.783 779.417 760.966 785.272C758.923 800.59 756.813 815.228 753.953 825.576C752.932 829.389 755.247 833.27 759.127 834.087L804.947 843.686C810.053 844.775 815.159 841.712 816.657 836.674C817.61 833.338 818.563 829.185 819.176 824.215C821.15 809.1 842.119 799.229 842.528 796.914Z" fill="#7D4E24"/>
<path d="M842.597 796.165L842.528 796.846C842.528 796.914 841.711 804.062 841.711 804.062L838.171 836.673L835.924 857.098L834.495 869.898C834.359 871.395 833.201 872.689 831.703 872.961L831.363 873.029L830.886 873.097L830.546 873.165L821.083 875.072C821.015 875.072 819.176 875.48 819.176 875.48L817.27 875.821C816.93 875.889 816.657 875.889 816.385 875.889C815.976 875.821 815.5 875.753 815.5 875.753C813.866 875.072 812.913 873.574 813.117 871.872L813.73 866.834L816.385 846.001L819.108 824.487C819.176 824.214 820.334 815.16 820.334 815.16C820.334 815.092 822.853 795.416 822.853 795.416C823.057 793.782 824.078 792.42 825.576 791.875C826.053 791.739 826.529 791.603 827.006 791.603C827.278 791.603 828.367 791.535 828.367 791.535L834.154 791.263L838.171 791.127C838.852 791.059 839.465 791.263 840.009 791.467C840.554 791.739 841.031 792.08 841.439 792.488C842.324 793.578 842.733 794.871 842.597 796.165Z" fill="#CA9E67"/>
<path d="M831.091 869.966C831.227 869.966 831.364 869.762 831.432 869.557L839.533 795.824C839.601 795.28 839.329 794.939 839.193 794.735C839.057 794.599 838.716 794.327 838.308 794.327L827.142 794.735C826.53 794.803 826.053 795.212 825.985 795.824L816.249 872.349C816.249 872.485 816.249 872.621 816.385 872.757C816.658 872.825 831.091 869.966 831.091 869.966Z" fill="#7D4E24"/>
<path d="M781.798 856.894L773.492 859.754L770.769 853.013C775.467 846.205 777.373 832.521 778.939 818.087L788.675 819.926C787.245 834.972 785.611 849.405 781.798 856.894Z" fill="#CA9E67"/>
<path d="M840.622 793.918C840.962 793.918 841.303 793.646 841.303 793.237L842.12 787.314C842.256 786.361 841.983 785.34 841.303 784.591C840.622 783.842 839.737 783.434 838.715 783.434H829.933C828.299 783.434 826.869 784.591 826.597 786.225L825.235 793.237C825.167 793.646 825.439 794.054 825.848 794.122C826.256 794.191 826.665 793.918 826.733 793.51L828.095 786.497C828.231 785.612 828.98 785 829.933 785H838.715C839.26 785 839.737 785.204 840.145 785.612C840.486 786.021 840.69 786.565 840.554 787.11L839.737 793.033C839.669 793.442 839.941 793.85 840.418 793.918C840.486 793.918 840.554 793.918 840.622 793.918Z" fill="#B2B2B2"/>
<path d="M839.125 785.544C839.057 785.884 838.717 786.157 838.376 786.089C835.517 785.884 833.27 785.816 830.411 785.884C830.206 785.884 830.002 785.816 829.866 785.68C829.73 785.544 829.662 785.34 829.73 785.136C829.73 784.999 829.798 784.863 829.798 784.727C840.963 726.381 867.583 628.343 853.899 595.527L864.043 596.276C876.638 635.355 848.044 738.431 839.125 785.544Z" fill="#332821"/>
<path d="M741.495 701.939C739.248 712.832 737.546 724.066 736.593 735.64C731.895 762.464 736.933 811.279 749.12 837.082C752.116 833.338 757.562 831.704 766.004 832.657C764.234 794.395 770.702 764.507 766.004 743.401L774.855 724.066C761.851 722.772 747.827 714.534 741.495 701.939Z" fill="#FFD391"/>
<path d="M766.005 636.24C754.431 656.392 746.397 678.383 741.495 701.939C747.827 714.534 761.784 722.772 774.855 724.066L793.033 684.238C811.688 643.661 781.255 616.905 766.005 636.24Z" fill="#EA4A49"/>
<path d="M798.956 860.57C797.458 861.387 795.28 861.524 793.237 859.822C788.744 855.124 783.978 851.379 777.851 853.49C776.762 855.464 776.693 858.12 777.306 861.251L777.442 861.932C779.008 868.604 783.57 877.182 788.199 885.897C788.744 887.395 788.335 888.484 787.587 889.097C786.565 889.982 784.727 890.05 783.365 889.233C783.638 891.684 780.506 892.569 778.396 890.39L775.264 886.986C774.923 889.778 771.587 889.029 770.566 886.986L764.643 879.633C760.558 875.753 757.29 871.055 754.431 865.745C754.022 864.996 753.614 864.247 753.273 863.43C750.482 854.715 749.052 846.001 749.188 837.286C751.231 830.07 757.699 828.98 766.073 832.929L776.081 838.103C785.408 842.665 790.174 849.269 800.182 857.371C800.999 858.256 800.318 859.753 798.956 860.57Z" fill="#FFD391"/>
<path opacity="0.15" d="M787.586 888.961C786.565 889.846 784.727 889.914 783.365 889.097C783.637 891.548 780.506 892.433 778.395 890.254L775.263 886.85C774.923 889.642 771.587 888.893 770.566 886.85L764.642 879.497C760.557 875.617 757.29 870.919 754.43 865.609C759.264 867.583 764.302 866.221 769.408 863.566C773.697 873.506 781.527 887.123 787.586 888.961Z" fill="black"/>
<path opacity="0.15" d="M798.888 860.57C797.458 861.387 795.279 861.524 793.169 859.821C788.675 855.124 783.909 851.379 777.782 853.49C776.693 855.464 776.625 858.119 777.237 861.251L774.718 850.562C785.884 847.907 793.645 858.46 798.888 860.57Z" fill="black"/>
<path d="M870.238 540.721C877.319 559.784 873.438 571.426 855.26 575.511L857.439 552.431L870.238 540.721Z" fill="black"/>
<path d="M804.675 606.829C808.147 596.549 810.121 585.996 811.687 575.375L852.672 592.94L846.749 619.696C839.805 645.976 798.819 627.253 804.675 606.829Z" fill="#FFD391"/>
<path opacity="0.5" d="M857.644 597.91C855.874 607.986 864.384 643.253 849.61 648.495C832.249 648.495 815.569 607.442 819.994 596.617L825.577 578.779L857.644 597.91Z" fill="#EA4A49"/>
<path d="M831.977 524.654C813.05 524.858 802.225 534.049 801.476 554.474C802.021 575.92 808.625 594.914 825.305 606.556C833.407 613.433 847.295 617.382 857.848 613.705C868.741 609.824 868.333 587.357 869.967 566.729C872.758 545.827 853.287 530.305 831.977 524.654Z" fill="#FFD391"/>
<path d="M872.553 551.342C867.311 572.311 846.342 554.474 829.185 565.503C822.036 570.064 823.057 578.166 816.249 583.749C812.301 586.949 812.437 586.881 811.892 591.919C811.552 595.255 810.803 597.638 806.582 595.936C796.71 578.847 784.046 539.564 817.27 524.586C845.456 513.488 872.553 529.76 872.553 551.342Z" fill="black"/>
<path d="M812.914 589.196C811.076 587.63 809.305 585.86 808.284 583.613C807.263 581.434 807.059 578.711 808.216 576.6C809.373 574.49 812.029 573.128 814.343 573.945C815.909 574.49 817.067 575.988 817.611 577.554C818.156 579.12 818.292 580.822 818.36 582.524C818.428 584.021 818.565 585.587 818.633 587.085C818.701 588.106 818.701 589.332 818.02 590.081C817.339 590.762 816.25 590.966 815.365 590.693C814.48 590.421 813.663 589.808 812.914 589.196Z" fill="#FFD391"/>
<path d="M642.48 928.107C639.892 934.439 637.442 941.043 635.127 948.124C634.786 949.077 634.514 949.962 634.174 950.983C622.94 960.242 612.183 969.365 601.835 978.829C599.792 980.599 597.818 982.437 595.911 984.275C583.044 996.326 570.993 1009.06 559.964 1023.35C556.492 1026.62 566.84 1056.99 558.671 1056.92C545.327 1056.85 532.527 1013.96 540.901 1005.52C551.522 994.351 559.011 981.416 565.819 969.229C571.47 959.085 576.576 949.485 582.567 941.996C583.793 940.43 585.018 939.001 586.312 937.639C590.193 933.622 594.482 930.49 599.52 928.652L585.359 841.031L615.587 808.487L620.081 803.654L661.134 813.525C670.529 868.4 655.96 894.679 642.48 928.107Z" fill="#F29755"/>
<path d="M689.661 1158.43C687.55 1165.37 664.471 1159.04 643.91 1139.03C624.711 1081.5 595.435 1046.77 609.801 992.854C608.575 990.743 607.418 988.564 606.26 986.522C604.831 983.935 603.401 981.348 601.971 978.829C595.027 966.233 588.491 953.911 582.636 941.996C581.615 940.022 580.73 938.116 579.777 936.209C570.858 917.759 563.709 900.534 559.284 885.284C540.766 851.856 546.553 827.414 567.113 808.487C568.883 806.853 570.722 805.288 572.696 803.722L615.656 808.556L661.135 813.662C651.875 840.554 640.982 863.906 621.307 868.944C631.042 888.756 637.578 907.955 642.548 928.244C644.386 935.597 645.952 943.154 647.45 950.915C649.152 959.766 650.65 968.957 652.08 978.488C653.782 990.13 650.514 1001.7 651.807 1019.13C654.735 1058.08 654.667 1087.76 666.853 1131.95C676.793 1145.43 690.955 1154.21 689.661 1158.43Z" fill="#FFD391"/>
<path opacity="0.5" d="M652.081 978.624C638.328 987.679 622.874 990.471 606.194 986.454C604.764 983.867 603.334 981.28 601.904 978.76C599.862 980.531 597.888 982.369 595.981 984.207C583.386 981.756 573.174 976.514 565.889 969.161C571.54 959.017 576.646 949.417 582.637 941.928C581.616 939.954 580.731 938.047 579.778 936.141L586.382 937.571L635.196 948.055L647.451 950.711C649.153 959.561 650.651 968.752 652.081 978.284C652.081 978.42 652.081 978.556 652.081 978.624Z" fill="#FFD391"/>
<path d="M640.71 633.312C628.728 626.436 617.903 625.755 610.073 630.317L535.183 673.821C527.49 678.246 522.656 687.846 522.656 701.462L522.52 747.145C522.452 767.298 536.613 791.807 554.178 801.952L569.292 810.666L644.183 767.162L644.523 635.491L640.71 633.312Z" fill="#3B254A"/>
<path d="M689.796 930.286C679.72 950.779 660.521 962.148 639.212 966.574C629.884 968.48 620.149 969.161 610.549 968.616C580.184 966.982 551.862 953.774 544.646 935.188C563.164 889.233 522.519 851.992 562.892 812.504L570.857 812.572L661.134 813.525C678.835 871.191 667.534 886.373 689.796 930.286Z" fill="#3A7D9E"/>
<path opacity="0.5" d="M610.686 968.616C580.253 966.982 551.863 953.774 544.714 935.188C563.232 889.233 522.587 851.992 562.96 812.504L570.926 812.572L609.052 836.809C588.218 834.154 563.232 847.022 560.781 869.216C558.467 926.405 568.475 950.711 610.686 968.616Z" fill="#3A7D9E"/>
<path d="M632.268 651.967C628.455 670.553 645.408 697.99 656.233 731.487C661.339 752.183 673.322 775.944 692.385 799.296L703.346 796.437C694.291 769.204 691.636 750.413 681.696 726.925L674.683 671.915C671.756 641.754 644.455 631.542 632.268 651.967Z" fill="#FFD391"/>
<path d="M483.917 828.912L476.905 840.69L471.867 851.787L470.913 861.387C470.505 863.566 472.411 865.2 472.82 862.544L471.118 872.757C470.369 875.684 473.024 877.046 474.113 874.459L477.926 861.864L477.177 881.403C477.109 884.331 479.9 886.033 480.853 882.492L484.598 862.681L485.211 874.799L487.253 883.786C488.342 887.054 491.747 887.326 491.747 883.922L490.657 872.28C490.657 872.28 491.747 864.178 492.495 860.502C492.632 859.889 497.193 854.443 497.193 854.443L506.452 867.31C509.312 870.102 512.171 867.855 510.197 864.11L503.184 846.545C503.184 846.545 498.078 838.307 497.602 837.558C497.193 836.809 497.193 836.809 497.193 836.809L498.282 830.137L485.823 824.963L483.917 828.912Z" fill="#FFD391"/>
<path d="M611.979 604.445C583.248 601.246 570.517 620.921 567.589 638.963C563.641 663.132 568.679 673.072 576.576 686.076C582.159 695.267 598.703 710.517 598.703 710.517C610.141 663.745 587.878 635.219 596.865 621.534C601.494 614.453 611.911 611.049 611.911 611.049V604.445H611.979Z" fill="black"/>
<path d="M657.527 760.149C654.395 778.599 655.212 796.437 661.135 813.525C658.889 825.235 652.148 833.746 636.558 836.197C603.061 841.439 575.692 830.41 562.893 812.504C575.352 800.385 575.284 784.727 567.999 767.025C562.484 757.153 558.808 746.464 556.765 735.163C554.178 721.138 554.042 706.16 555.676 690.365C570.11 676.544 580.118 663.268 601.223 651.694C604.219 650.06 607.419 648.494 610.891 646.929C615.316 644.954 619.537 643.524 623.554 642.639C645.136 637.533 660.114 645.635 660.114 645.635C669.577 655.779 673.322 667.081 670.054 679.676C669.645 681.378 669.033 683.148 668.352 684.85C668.692 694.45 670.599 702.007 672.913 708.611C676.794 719.844 681.696 728.082 681.628 738.295C681.56 751.298 672.709 759.468 657.527 760.149Z" fill="#EA4A49"/>
<path opacity="0.5" d="M661.135 813.525C658.888 825.235 652.148 833.746 636.557 836.128C603.061 841.371 575.76 830.341 562.892 812.436C575.351 800.317 575.283 784.658 568.067 766.957C562.552 757.085 558.876 746.396 556.833 735.027H576.305C587.47 760.966 591.895 786.429 617.154 782.48C634.719 779.688 640.642 765.323 636.966 747.554C641.8 753.953 651.331 760.353 657.526 760.081C654.395 778.667 655.212 796.505 661.135 813.525Z" fill="#EA4A49"/>
<path d="M555.743 690.365C539.54 700.169 522.315 729.24 505.09 759.877C493.38 777.646 486.776 803.586 482.555 833.474L495.354 843.822C506.928 818.087 517.753 794.054 528.238 770.77L566.228 735.095C580.389 726.381 579.027 685.395 555.743 690.365Z" fill="#FFD391"/>
<path d="M692.588 799.568C690.614 804.13 688.639 808.555 686.801 812.844C685.167 819.312 682.376 825.099 679.108 830.75C678.018 834.903 680.129 835.039 684.078 832.861L692.316 820.742C694.63 822.716 696.264 826.052 697.558 830.137L695.311 848.792C695.924 852.4 697.354 852.06 699.124 850.017L702.392 833.133L702.664 851.243C703.958 852.74 704.979 852.264 705.864 849.813L706.953 844.571C707.838 846.477 708.792 846.137 709.745 844.162C709.745 844.162 710.426 822.308 710.426 821.967C710.426 821.627 703.277 796.505 703.277 796.505L700.554 791.126L689.66 794.122L692.588 799.568Z" fill="#FFD391"/>
<path d="M567.794 794.462L558.467 787.518C588.832 746.805 590.466 714.126 582.704 698.535C577.802 688.663 568.816 683.489 556.833 683.489V671.847C573.241 671.847 586.177 679.54 593.053 693.361C605.512 718.142 595.776 756.949 567.794 794.462Z" fill="#3B254A"/>
<path d="M672.981 708.611C668.216 702.552 664.88 695.675 661.748 689.14C652.557 670.009 643.91 651.967 601.291 652.716L601.223 651.626L601.019 641.074C609.665 640.869 617.086 641.414 623.554 642.571C652.216 647.473 662.293 663.813 670.054 679.608C669.441 682.468 670.054 700.237 672.981 708.611Z" fill="#3B254A"/>
<path d="M589.104 664.834C594.959 655.303 597.274 646.588 598.5 635.423L631.655 639.099L630.566 662.792C642.004 697.514 591.827 686.961 589.104 664.834Z" fill="#FFD391"/>
<path opacity="0.5" d="M610.686 643.388C612.456 663.064 618.583 692.612 636.489 683.829C646.905 678.723 643.706 662.179 641.935 648.018L610.686 643.388Z" fill="#FFD391"/>
<path d="M597.682 641.55C579.981 609.756 590.329 582.795 615.86 577.621C643.842 571.97 661.883 592.531 661.203 616.836C661.271 642.571 654.258 660.545 644.454 661.839C628.319 663.949 616.881 656.46 612.524 645.567L597.682 641.55Z" fill="#FFD391"/>
<path d="M596.866 645.635C601.087 646.997 605.444 644.41 606.193 640.12L607.623 632.087L617.835 635.219C621.307 636.308 625.12 635.423 627.775 632.904C640.098 621.33 652.829 608.871 660.454 607.101C659.842 588.174 646.089 575.306 623.213 574.83C595.3 576.328 585.973 592.327 586.381 612.275C586.585 624.734 591.419 635.763 596.866 645.635Z" fill="black"/>
<path d="M614.839 643.933C616.337 641.414 616.609 638.146 615.451 635.423C614.226 632.7 611.503 630.725 608.575 630.589C606.533 630.521 604.286 631.406 603.333 633.244C602.244 635.423 603.129 638.01 604.014 640.325C604.626 641.959 605.307 643.593 606.465 644.954C607.622 646.248 609.324 647.201 611.026 646.929C612.66 646.656 614.022 645.363 614.839 643.933Z" fill="#FFD391"/>
<path opacity="0.5" d="M624.575 855.6C622.601 888.892 627.298 923.546 642.276 948.6C632.2 936.073 623.349 917.963 616.269 896.586C619.809 921.504 627.298 946.49 639.213 966.506C660.454 962.012 679.653 950.711 689.797 930.218C653.51 951.596 631.724 903.326 624.575 855.6Z" fill="#3A7D9E"/>
</g>
<defs>
<linearGradient id="paint0_linear_448_425" x1="720" y1="0" x2="720" y2="1059.5" gradientUnits="userSpaceOnUse">
<stop stop-color="#FFF7D1"/>
<stop offset="0.338542" stop-color="#FFE776"/>
<stop offset="1" stop-color="#FFA751"/>
</linearGradient>
<clipPath id="clip0_448_425">
<rect width="1440" height="960" fill="white"/>
</clipPath>
</defs>
</svg>
