<svg width="1440" height="840" viewBox="0 0 1440 840" fill="none" xmlns="http://www.w3.org/2000/svg">
<g clip-path="url(#clip0_449_674)">
<rect width="1440" height="840" fill="white"/>
<path d="M1440 0H0V840H1440V0Z" fill="url(#paint0_linear_449_674)"/>
<path d="M969.297 507.749H472.681V720.228H969.297V507.749Z" fill="#DDE3C4"/>
<path d="M976.329 645.233H463.834V650.245H976.329V645.233Z" fill="#DDE3C4"/>
<path d="M985.176 592.74H455V597.752H985.176V592.74Z" fill="#DDE3C4"/>
<path d="M967.495 498.659H472.681L455 592.74H985.176L967.495 498.659Z" fill="#DDE3C4"/>
<path d="M967.496 498.659H472.682L470.598 509.743H969.579L967.496 498.659Z" fill="#DDE3C4"/>
<path d="M969.297 697.957H472.681V720.228H969.297V697.957Z" fill="#DDE3C4"/>
<path d="M801.628 543.673H640.338V720.228H801.628V543.673Z" fill="#DDE3C4"/>
<path d="M750.925 599.464H689.265V688.036H750.925V599.464Z" fill="#DDE3C4"/>
<path d="M793.83 543.673H648.137V566.327H793.83V543.673Z" fill="#DDE3C4"/>
<path d="M720.996 441L635.25 543.673H640.338H801.641H806.729L720.996 441Z" fill="#DDE3C4"/>
<path d="M640.338 543.673L720.996 450.115L801.641 543.673H640.338Z" fill="#DDE3C4"/>
<path d="M655.935 543.673H640.338V712.058H655.935V543.673Z" fill="#DDE3C4"/>
<path d="M801.64 543.673H786.043V712.058H801.64V543.673Z" fill="#DDE3C4"/>
<path d="M661.036 680.89H635.25V720.228H661.036V680.89Z" fill="#DDE3C4"/>
<path d="M806.73 680.89H780.943V720.228H806.73V680.89Z" fill="#DDE3C4"/>
<path d="M661.036 543.673H635.25V551.842H661.036V543.673Z" fill="#DDE3C4"/>
<path d="M806.73 543.673H780.943V551.842H806.73V543.673Z" fill="#DDE3C4"/>
<path d="M747.383 603.006H692.793V688.036H747.383V603.006Z" fill="#DDE3C4"/>
<path d="M780.943 709.093H661.036V720.228H780.943V709.093Z" fill="#DDE3C4"/>
<path d="M780.943 704.158H661.036V709.093H780.943V704.158Z" fill="#DDE3C4"/>
<path d="M780.943 693.022H661.036V704.158H780.943V693.022Z" fill="#DDE3C4"/>
<path d="M780.943 688.087H661.036V693.022H780.943V688.087Z" fill="#DDE3C4"/>
<path d="M661.036 680.89H635.25V685.313H661.036V680.89Z" fill="#DDE3C4"/>
<path d="M806.73 680.89H780.943V685.313H806.73V680.89Z" fill="#DDE3C4"/>
<path d="M717.16 611.7H701.256V651.166H717.16V611.7Z" fill="#DDE3C4"/>
<path d="M740.722 611.7H724.818V651.166H740.722V611.7Z" fill="#DDE3C4"/>
<path d="M717.16 658.67H701.256V669.128H717.16V658.67Z" fill="#DDE3C4"/>
<path d="M740.722 658.67H724.818V669.128H740.722V658.67Z" fill="#DDE3C4"/>
<path d="M600.015 655.563H575.162V692.306H600.015V655.563Z" fill="#DDE3C4"/>
<path d="M598.264 657.328H576.939V690.542H598.264V657.328Z" fill="#DDE3C4"/>
<path opacity="0.1" d="M593.738 657.328L582.91 690.542H576.939V657.328H593.738Z" fill="#DDE3C4"/>
<path opacity="0.1" d="M598.251 665.114L592.191 690.542H598.251V665.114Z" fill="#DDE3C4"/>
<path d="M588.33 657.328H586.859V690.542H588.33V657.328Z" fill="#DDE3C4"/>
<path d="M598.256 674.666V673.196H576.931V674.666H598.256Z" fill="#DDE3C4"/>
<path d="M562.122 655.563H537.269V692.306H562.122V655.563Z" fill="#DDE3C4"/>
<path d="M560.371 657.328H539.046V690.542H560.371V657.328Z" fill="#DDE3C4"/>
<path opacity="0.1" d="M555.845 657.328L545.016 690.542H539.046V657.328H555.845Z" fill="#DDE3C4"/>
<path opacity="0.1" d="M560.358 665.114L554.298 690.542H560.358V665.114Z" fill="#DDE3C4"/>
<path d="M550.437 657.328H548.967V690.542H550.437V657.328Z" fill="#DDE3C4"/>
<path d="M560.361 674.667V673.197H539.037V674.667H560.361Z" fill="#DDE3C4"/>
<path d="M524.228 655.563H499.375V692.306H524.228V655.563Z" fill="#DDE3C4"/>
<path d="M522.477 657.328H501.152V690.542H522.477V657.328Z" fill="#DDE3C4"/>
<path opacity="0.1" d="M517.951 657.328L507.123 690.542H501.152V657.328H517.951Z" fill="#DDE3C4"/>
<path opacity="0.1" d="M522.464 665.114L516.404 690.542H522.464V665.114Z" fill="#DDE3C4"/>
<path d="M512.543 657.328H511.073V690.542H512.543V657.328Z" fill="#DDE3C4"/>
<path d="M522.468 674.667V673.197H501.143V674.667H522.468Z" fill="#DDE3C4"/>
<path d="M940.8 655.563H915.947V692.306H940.8V655.563Z" fill="#DDE3C4"/>
<path d="M939.037 657.328H917.712V690.542H939.037V657.328Z" fill="#DDE3C4"/>
<path opacity="0.1" d="M934.511 657.328L923.682 690.542H917.712V657.328H934.511Z" fill="#DDE3C4"/>
<path opacity="0.1" d="M939.023 665.114L932.963 690.542H939.023V665.114Z" fill="#DDE3C4"/>
<path d="M929.103 657.328H927.633V690.542H929.103V657.328Z" fill="#DDE3C4"/>
<path d="M939.029 674.666V673.195H917.705V674.666H939.029Z" fill="#DDE3C4"/>
<path d="M902.894 655.563H878.041V692.306H902.894V655.563Z" fill="#DDE3C4"/>
<path d="M901.143 657.328H879.818V690.542H901.143V657.328Z" fill="#DDE3C4"/>
<path opacity="0.1" d="M896.617 657.328L885.789 690.542H879.818V657.328H896.617Z" fill="#DDE3C4"/>
<path opacity="0.1" d="M901.13 665.114L895.07 690.542H901.13V665.114Z" fill="#DDE3C4"/>
<path d="M891.209 657.328H889.738V690.542H891.209V657.328Z" fill="#DDE3C4"/>
<path d="M901.135 674.667V673.196H879.81V674.667H901.135Z" fill="#DDE3C4"/>
<path d="M865.002 655.563H840.148V692.306H865.002V655.563Z" fill="#DDE3C4"/>
<path d="M863.25 657.328H841.926V690.542H863.25V657.328Z" fill="#DDE3C4"/>
<path opacity="0.1" d="M858.725 657.328L847.896 690.542H841.926V657.328H858.725Z" fill="#DDE3C4"/>
<path opacity="0.1" d="M863.238 665.114L857.178 690.542H863.238V665.114Z" fill="#DDE3C4"/>
<path d="M853.316 657.328H851.846V690.542H853.316V657.328Z" fill="#DDE3C4"/>
<path d="M863.242 674.667V673.197H841.918V674.667H863.242Z" fill="#DDE3C4"/>
<path d="M600.015 603.186H575.162V639.928H600.015V603.186Z" fill="#DDE3C4"/>
<path d="M598.264 604.95H576.939V638.164H598.264V604.95Z" fill="#DDE3C4"/>
<path opacity="0.1" d="M593.738 604.95L582.91 638.164H576.939V604.95H593.738Z" fill="#DDE3C4"/>
<path opacity="0.1" d="M598.251 612.749L592.191 638.164H598.251V612.749Z" fill="#DDE3C4"/>
<path d="M588.33 604.95H586.859V638.164H588.33V604.95Z" fill="#DDE3C4"/>
<path d="M598.258 622.291V620.82H576.933V622.291H598.258Z" fill="#DDE3C4"/>
<path d="M562.122 603.186H537.269V639.928H562.122V603.186Z" fill="#DDE3C4"/>
<path d="M560.371 604.95H539.046V638.164H560.371V604.95Z" fill="#DDE3C4"/>
<path opacity="0.1" d="M555.845 604.95L545.016 638.164H539.046V604.95H555.845Z" fill="#DDE3C4"/>
<path opacity="0.1" d="M560.358 612.749L554.298 638.164H560.358V612.749Z" fill="#DDE3C4"/>
<path d="M550.437 604.95H548.967V638.164H550.437V604.95Z" fill="#DDE3C4"/>
<path d="M560.364 622.291V620.821H539.04V622.291H560.364Z" fill="#DDE3C4"/>
<path d="M524.228 603.186H499.375V639.928H524.228V603.186Z" fill="#DDE3C4"/>
<path d="M522.477 604.95H501.152V638.164H522.477V604.95Z" fill="#DDE3C4"/>
<path opacity="0.1" d="M517.951 604.95L507.123 638.164H501.152V604.95H517.951Z" fill="#DDE3C4"/>
<path opacity="0.1" d="M522.464 612.749L516.404 638.164H522.464V612.749Z" fill="#DDE3C4"/>
<path d="M512.543 604.95H511.073V638.164H512.543V604.95Z" fill="#DDE3C4"/>
<path d="M522.47 622.292V620.822H501.145V622.292H522.47Z" fill="#DDE3C4"/>
<path d="M940.8 603.186H915.947V639.928H940.8V603.186Z" fill="#DDE3C4"/>
<path d="M939.037 604.95H917.712V638.164H939.037V604.95Z" fill="#DDE3C4"/>
<path opacity="0.1" d="M934.511 604.95L923.682 638.164H917.712V604.95H934.511Z" fill="#DDE3C4"/>
<path opacity="0.1" d="M939.023 612.749L932.963 638.164H939.023V612.749Z" fill="#DDE3C4"/>
<path d="M929.103 604.95H927.633V638.164H929.103V604.95Z" fill="#DDE3C4"/>
<path d="M939.031 622.29V620.82H917.707V622.29H939.031Z" fill="#DDE3C4"/>
<path d="M902.894 603.186H878.041V639.928H902.894V603.186Z" fill="#DDE3C4"/>
<path d="M901.143 604.95H879.818V638.164H901.143V604.95Z" fill="#DDE3C4"/>
<path opacity="0.1" d="M896.617 604.95L885.789 638.164H879.818V604.95H896.617Z" fill="#DDE3C4"/>
<path opacity="0.1" d="M901.13 612.749L895.07 638.164H901.13V612.749Z" fill="#DDE3C4"/>
<path d="M891.209 604.95H889.738V638.164H891.209V604.95Z" fill="#DDE3C4"/>
<path d="M901.137 622.291V620.82H879.812V622.291H901.137Z" fill="#DDE3C4"/>
<path d="M865.002 603.186H840.148V639.928H865.002V603.186Z" fill="#DDE3C4"/>
<path d="M863.25 604.95H841.926V638.164H863.25V604.95Z" fill="#DDE3C4"/>
<path opacity="0.1" d="M858.725 604.95L847.896 638.164H841.926V604.95H858.725Z" fill="#DDE3C4"/>
<path opacity="0.1" d="M863.238 612.749L857.178 638.164H863.238V612.749Z" fill="#DDE3C4"/>
<path d="M853.316 604.95H851.846V638.164H853.316V604.95Z" fill="#DDE3C4"/>
<path d="M863.244 622.291V620.821H841.919V622.291H863.244Z" fill="#DDE3C4"/>
<path opacity="0.1" d="M701.256 611.7V651.166L717.16 611.7H701.256Z" fill="#DDE3C4"/>
<path opacity="0.1" d="M740.722 611.7L724.818 651.166V611.7H740.722Z" fill="#DDE3C4"/>
<path opacity="0.1" d="M717.161 658.67V669.128H709.209L713.185 658.67H717.161Z" fill="#DDE3C4"/>
<path opacity="0.1" d="M740.722 658.67V669.128H732.771L736.746 658.67H740.722Z" fill="#DDE3C4"/>
<path d="M753.303 570.393H688.689V588.674H753.303V570.393Z" fill="#DDE3C4"/>
<path d="M719.781 572.157H690.453V586.897H719.781V572.157Z" fill="#DDE3C4"/>
<path d="M751.526 572.157H723.361V586.897H751.526V572.157Z" fill="#DDE3C4"/>
<path opacity="0.1" d="M690.453 572.157V586.898H702.854L707.278 572.157H690.453Z" fill="#DDE3C4"/>
<path opacity="0.1" d="M719.781 572.157L715.229 586.898H719.781V572.157Z" fill="#DDE3C4"/>
<path opacity="0.1" d="M723.361 572.157V586.898H735.762L740.186 572.157H723.361Z" fill="#DDE3C4"/>
<path opacity="0.1" d="M751.525 572.157L746.974 586.898H751.525V572.157Z" fill="#DDE3C4"/>
<path d="M729.097 517.068C734.245 511.921 734.245 503.575 729.097 498.428C723.95 493.28 715.604 493.28 710.457 498.428C705.31 503.575 705.31 511.921 710.457 517.068C715.604 522.216 723.95 522.216 729.097 517.068Z" fill="#DDE3C4"/>
<path d="M533.178 687.78C517.951 687.78 505.614 702.316 505.614 720.253H560.741C560.741 702.329 548.391 687.78 533.178 687.78Z" fill="#DDE3C4"/>
<path d="M562.838 701.281C555.96 701.281 550.386 709.783 550.386 720.253H575.29C575.29 709.783 569.716 701.281 562.838 701.281Z" fill="#DDE3C4"/>
<path d="M485.133 701.281C478.255 701.281 472.681 709.783 472.681 720.253H497.585C497.585 709.783 492.011 701.281 485.133 701.281Z" fill="#DDE3C4"/>
<path d="M610.051 693.022C601.165 693.022 593.968 705.218 593.968 720.266H626.147C626.134 705.218 618.936 693.022 610.051 693.022Z" fill="#DDE3C4"/>
<path d="M502.188 706.625C496.46 706.625 491.832 712.736 491.832 720.266H512.556C512.543 712.736 507.902 706.625 502.188 706.625Z" fill="#DDE3C4"/>
<path d="M579.33 714.398C575.955 714.398 573.231 717.032 573.231 720.279H585.428C585.441 717.032 582.705 714.398 579.33 714.398Z" fill="#DDE3C4"/>
<path d="M629.151 714.398C625.776 714.398 623.053 717.032 623.053 720.279H635.249C635.249 717.032 632.513 714.398 629.151 714.398Z" fill="#DDE3C4"/>
<path d="M590.491 706.625C586.898 706.625 583.996 712.736 583.996 720.278H596.985C596.985 712.736 594.083 706.625 590.491 706.625Z" fill="#DDE3C4"/>
<path d="M908.814 687.78C924.04 687.78 936.377 702.316 936.377 720.253H881.25C881.237 702.329 893.587 687.78 908.814 687.78Z" fill="#DDE3C4"/>
<path d="M879.141 701.281C886.019 701.281 891.593 709.783 891.593 720.253H866.688C866.688 709.783 872.263 701.281 879.141 701.281Z" fill="#DDE3C4"/>
<path d="M956.845 701.281C963.723 701.281 969.297 709.783 969.297 720.253H944.393C944.393 709.783 949.967 701.281 956.845 701.281Z" fill="#DDE3C4"/>
<path d="M831.94 693.022C840.825 693.022 848.023 705.218 848.023 720.266H815.844C815.844 705.218 823.054 693.022 831.94 693.022Z" fill="#DDE3C4"/>
<path d="M939.79 706.625C945.518 706.625 950.146 712.736 950.146 720.266H929.422C929.435 712.736 934.076 706.625 939.79 706.625Z" fill="#DDE3C4"/>
<path d="M862.648 714.398C866.023 714.398 868.746 717.032 868.746 720.279H856.55C856.55 717.032 859.273 714.398 862.648 714.398Z" fill="#DDE3C4"/>
<path d="M812.827 714.398C816.202 714.398 818.925 717.032 818.925 720.279H806.729C806.729 717.032 809.464 714.398 812.827 714.398Z" fill="#DDE3C4"/>
<path d="M851.488 706.625C855.08 706.625 857.982 712.736 857.982 720.278H844.993C844.993 712.736 847.895 706.625 851.488 706.625Z" fill="#DDE3C4"/>
<path d="M1440 696.173H0V840H1440V696.173Z" fill="#B9AA11"/>
<path d="M1440 716.173H0V733.357H1440V716.173Z" fill="#F1C274"/>
<path d="M0 713.376H1440V740.736L1.4016 768.096L3.0144 725.914" fill="#9B8C0F"/>
<path d="M533.817 840L1439.81 797.223L1440 840H533.817Z" fill="#AB9A11"/>
<path d="M1.4016 797.222L1439.81 768.096V778.56L86.5344 840H0L1.4016 797.222Z" fill="#AB9A11"/>
</g>
<defs>
<linearGradient id="paint0_linear_449_674" x1="720.001" y1="-23.8686" x2="720.001" y2="955.235" gradientUnits="userSpaceOnUse">
<stop stop-color="#79D1E5"/>
<stop offset="0.0577" stop-color="#8DD7E2"/>
<stop offset="0.177" stop-color="#AFE3DC"/>
<stop offset="0.3042" stop-color="#CBECD8"/>
<stop offset="0.44" stop-color="#E1F3D4"/>
<stop offset="0.5884" stop-color="#F1F8D2"/>
<stop offset="0.84375" stop-color="#FAFBD0"/>
<stop offset="1" stop-color="#FDFCD0"/>
</linearGradient>
<clipPath id="clip0_449_674">
<rect width="1440" height="840" fill="white"/>
</clipPath>
</defs>
</svg>
