<svg width="1440" height="960" viewBox="0 0 1440 960" fill="none" xmlns="http://www.w3.org/2000/svg">
<g clip-path="url(#clip0_448_496)">
<rect width="1440" height="960" fill="white"/>
<path d="M1440 0H0V960H1440V0Z" fill="url(#paint0_linear_448_496)"/>
<path d="M456 496.164L922.414 563.312L985 626.47L456 496.164Z" fill="white"/>
<path opacity="0.6" d="M456 496.164L922.414 563.312L985 626.47L456 496.164Z" fill="#E1E1E1"/>
<path d="M456 496.164L922.414 563.312L900.768 654.643L456 496.164Z" fill="white"/>
<path opacity="0.2" d="M456 496.164L922.414 563.312L900.768 654.643L456 496.164Z" fill="black"/>
<path d="M456 496.164L840.699 587.597L900.768 654.643L456 496.164Z" fill="white"/>
<path opacity="0.6" d="M456 496.164L840.699 587.597L900.768 654.643L456 496.164Z" fill="#E1E1E1"/>
<path d="M596.329 584.294L595.295 586.059L638.106 611.136L639.14 609.37L596.329 584.294Z" fill="white"/>
<path d="M658.04 620.426L657.006 622.191L672.4 631.208L673.435 629.443L658.04 620.426Z" fill="white"/>
<path d="M456 496.164L840.699 587.597L765.92 677.721L456 496.164Z" fill="white"/>
<path d="M970.555 710.375C970.037 710.376 969.523 710.279 969.041 710.088L906.394 685.291C905.392 684.888 904.59 684.104 904.164 683.111C903.737 682.118 903.721 680.997 904.118 679.992C904.515 678.987 905.294 678.18 906.283 677.747C907.273 677.314 908.394 677.29 909.402 677.681L972.069 702.477C972.956 702.828 973.692 703.477 974.151 704.312C974.611 705.148 974.764 706.117 974.584 707.053C974.405 707.99 973.904 708.834 973.168 709.44C972.433 710.047 971.509 710.377 970.555 710.375V710.375Z" fill="white"/>
<path opacity="0.3" d="M970.555 710.375C970.037 710.376 969.523 710.279 969.041 710.088L906.394 685.291C905.392 684.888 904.59 684.104 904.164 683.111C903.737 682.118 903.721 680.997 904.118 679.992C904.515 678.987 905.294 678.18 906.283 677.747C907.273 677.314 908.394 677.29 909.402 677.681L972.069 702.477C972.956 702.828 973.692 703.477 974.151 704.312C974.611 705.148 974.764 706.117 974.584 707.053C974.405 707.99 973.904 708.834 973.168 709.44C972.433 710.047 971.509 710.377 970.555 710.375V710.375Z" fill="white"/>
<path d="M966.852 674.448C966.339 674.445 965.832 674.34 965.359 674.141L931.703 660.74C931.2 660.545 930.74 660.252 930.351 659.879C929.961 659.506 929.649 659.059 929.433 658.565C929.217 658.07 929.1 657.538 929.091 656.998C929.081 656.459 929.178 655.923 929.376 655.421C929.575 654.919 929.87 654.461 930.246 654.074C930.622 653.687 931.071 653.378 931.567 653.165C932.062 652.952 932.595 652.839 933.135 652.833C933.675 652.827 934.21 652.928 934.711 653.129L968.367 666.469C969.375 666.866 970.185 667.647 970.618 668.64C971.052 669.634 971.074 670.758 970.678 671.768C970.39 672.551 969.869 673.228 969.186 673.707C968.502 674.186 967.687 674.445 966.852 674.448Z" fill="white"/>
<path opacity="0.5" d="M966.852 674.448C966.339 674.445 965.832 674.34 965.359 674.141L931.703 660.74C931.2 660.545 930.74 660.252 930.351 659.879C929.961 659.506 929.649 659.059 929.433 658.565C929.217 658.07 929.1 657.538 929.091 656.998C929.081 656.459 929.178 655.923 929.376 655.421C929.575 654.919 929.87 654.461 930.246 654.074C930.622 653.687 931.071 653.378 931.567 653.165C932.062 652.952 932.595 652.839 933.135 652.833C933.675 652.827 934.21 652.928 934.711 653.129L968.367 666.469C969.375 666.866 970.185 667.647 970.618 668.64C971.052 669.634 971.074 670.758 970.678 671.768C970.39 672.551 969.869 673.228 969.186 673.707C968.502 674.186 967.687 674.445 966.852 674.448Z" fill="white"/>
<path d="M896.492 709.843C895.981 709.837 895.475 709.74 894.998 709.556L833.886 685.291C833.383 685.096 832.923 684.804 832.533 684.43C832.144 684.057 831.832 683.61 831.616 683.116C831.399 682.622 831.283 682.089 831.273 681.55C831.263 681.01 831.36 680.474 831.559 679.972C831.757 679.47 832.053 679.013 832.429 678.625C832.805 678.238 833.253 677.929 833.749 677.716C834.245 677.503 834.778 677.39 835.318 677.384C835.857 677.378 836.393 677.479 836.893 677.68L898.006 701.864C898.892 702.214 899.629 702.863 900.088 703.698C900.547 704.534 900.7 705.503 900.52 706.439C900.341 707.376 899.84 708.22 899.105 708.826C898.369 709.433 897.445 709.763 896.492 709.761V709.843Z" fill="white"/>
<path opacity="0.3" d="M896.492 709.843C895.981 709.837 895.475 709.74 894.998 709.556L833.886 685.291C833.383 685.096 832.923 684.804 832.533 684.43C832.144 684.057 831.832 683.61 831.616 683.116C831.399 682.622 831.283 682.089 831.273 681.55C831.263 681.01 831.36 680.474 831.559 679.972C831.757 679.47 832.053 679.013 832.429 678.625C832.805 678.238 833.253 677.929 833.749 677.716C834.245 677.503 834.778 677.39 835.318 677.384C835.857 677.378 836.393 677.479 836.893 677.68L898.006 701.864C898.892 702.214 899.629 702.863 900.088 703.698C900.547 704.534 900.7 705.503 900.52 706.439C900.341 707.376 899.84 708.22 899.105 708.826C898.369 709.433 897.445 709.763 896.492 709.761V709.843Z" fill="white"/>
</g>
<defs>
<linearGradient id="paint0_linear_448_496" x1="720" y1="0" x2="720" y2="1059.5" gradientUnits="userSpaceOnUse">
<stop stop-color="#FFF7D1"/>
<stop offset="0.338542" stop-color="#FFE776"/>
<stop offset="1" stop-color="#FFA751"/>
</linearGradient>
<clipPath id="clip0_448_496">
<rect width="1440" height="960" fill="white"/>
</clipPath>
</defs>
</svg>
