<svg width="36" height="36" viewBox="0 0 36 36" fill="none" xmlns="http://www.w3.org/2000/svg">
<rect width="36" height="36" rx="18" fill="#C2C2C2"/>
<path fill-rule="evenodd" clip-rule="evenodd" d="M14.7507 9.47021H21.2507C24.2417 9.47021 26.6673 11.8958 26.6673 14.8869V21.3869C26.6673 24.378 24.2417 26.8035 21.2507 26.8035H14.7507C11.7596 26.8035 9.33398 24.378 9.33398 21.3869V14.8869C9.33398 11.8958 11.7596 9.47021 14.7507 9.47021ZM21.2507 25.1785C23.3415 25.1785 25.0424 23.4777 25.0424 21.3869V14.8869C25.0424 12.796 23.3415 11.0952 21.2507 11.0952H14.7507C12.6599 11.0952 10.959 12.796 10.959 14.8869V21.3869C10.959 23.4777 12.6599 25.1785 14.7507 25.1785H21.2507Z" fill="white"/>
<path fill-rule="evenodd" clip-rule="evenodd" d="M13.334 18.1361C13.334 15.743 15.2742 13.8027 17.6673 13.8027C20.0604 13.8027 22.0007 15.743 22.0007 18.1361C22.0007 20.5292 20.0604 22.4694 17.6673 22.4694C15.2742 22.4694 13.334 20.5292 13.334 18.1361ZM14.9591 18.136C14.9591 19.6288 16.1746 20.8443 17.6674 20.8443C19.1602 20.8443 20.3757 19.6288 20.3757 18.136C20.3757 16.6421 19.1602 15.4276 17.6674 15.4276C16.1746 15.4276 14.9591 16.6421 14.9591 18.136Z" fill="white"/>
<ellipse cx="21.9915" cy="13.4788" rx="0.577416" ry="0.577417" fill="white"/>
</svg>
