<svg width="1440" height="960" viewBox="0 0 1440 960" fill="none" xmlns="http://www.w3.org/2000/svg">
<g clip-path="url(#clip0_448_426)">
<rect width="1440" height="960" fill="white"/>
<path d="M1440 0H0V960H1440V0Z" fill="url(#paint0_linear_448_426)"/>
<path d="M262 473H351.014V557.418H393V918H262V473Z" fill="#F2AF51" fill-opacity="0.4"/>
<path opacity="0.9" d="M1125 824C1125 816.734 1125 460 1125 460H1212V822.768L1125 824Z" fill="#F2AF51" fill-opacity="0.5"/>
<path d="M1030.38 552.35V619.835H971.485V741.537H900.766V498.432H836.937V744.331H781.148V599.185L659.647 545.9V763.364H584.304V498.432H526.631V391H462.434V659.482H375.843V743.523H229.958V582.665H111.092V730.482H74.5178V644.21L0 599.185V918L122.12 917.93L836.937 918H900.766V916.875H1104V552.35H1030.38Z" fill="url(#paint1_linear_448_426)" fill-opacity="0.5"/>
<path d="M1107.62 552.35V619.835H1166.52V741.537H1237.23V498.432H1301.06V744.331H1356.85V599.185L1478.35 545.9V763.364H1553.7V498.432H1611.37V391H1675.57V659.482H1762.16V743.523H1908.04V582.665H2026.91V730.482H2063.48V644.21L2138 599.185V918L2015.88 917.93L1301.06 918H1237.23V916.875H1034V552.35H1107.62Z" fill="url(#paint2_linear_448_426)" fill-opacity="0.5"/>
<path d="M916 768.288V840H0V696C30.3053 700.214 53.0006 717.42 53.0006 738.006C53.0006 739.978 52.7892 741.926 52.3665 743.828C63.7622 739.215 76.676 738.194 86.8611 741.938C99.4867 746.586 104.272 757.22 100.14 768.229C117.858 761.21 140.707 756.961 165.67 756.961C215.308 756.961 256.624 773.698 265.637 795.846C271.249 793.545 277.955 792.196 285.123 792.196C292.061 792.196 298.537 793.451 304.033 795.611C310.317 782.219 329.784 772.466 352.844 772.466C378.71 772.466 400.041 784.754 403.327 800.67C410.207 796.433 420.93 793.698 432.999 793.698C450.14 793.698 464.611 799.214 469.127 806.749C475.199 805.599 482.579 804.93 490.515 804.93C493.59 804.93 496.588 805.036 499.47 805.224C498.375 803.287 497.76 801.21 497.76 799.038C497.76 789.074 510.443 780.999 526.067 780.999C538.385 780.999 548.858 786.01 552.759 793.017C555.488 789.942 559.581 787.982 564.174 787.982C570.304 787.982 575.589 791.491 577.857 796.491C581.527 795.306 585.659 794.625 590.04 794.625C604.876 794.625 616.906 802.289 616.906 811.738C616.906 811.784 616.887 811.82 616.887 811.867C630.819 804.038 651.727 799.038 675.114 799.038C687.49 799.038 699.174 800.447 709.513 802.935C707.399 793.698 712.069 785.153 722.772 781.21C733.438 777.29 747.293 778.956 758.766 784.684C773.794 763.546 807.174 748.839 845.954 748.839C873.626 748.839 898.551 756.328 916 768.288Z" fill="#896D00"/>
<path d="M1440 751.355V840H780V662C801.846 667.208 818.191 688.477 818.191 713.925C818.191 716.362 818.037 718.77 817.73 721.121C825.941 715.419 835.248 714.157 842.575 718.785C851.671 724.53 855.113 737.674 852.132 751.283C864.901 742.607 881.362 737.355 899.362 737.355C935.13 737.355 964.898 758.044 971.398 785.42C975.456 782.577 980.263 780.908 985.436 780.908C990.436 780.908 995.109 782.461 999.071 785.13C1003.61 768.577 1017.63 756.52 1034.24 756.52C1052.88 756.52 1068.26 771.71 1070.63 791.383C1075.59 786.146 1083.32 782.765 1092.01 782.765C1104.36 782.765 1114.8 789.584 1118.05 798.898C1122.41 797.477 1127.74 796.65 1133.47 796.65C1135.68 796.65 1137.85 796.78 1139.91 797.012C1139.12 794.619 1138.68 792.051 1138.68 789.367C1138.68 777.049 1147.82 767.068 1159.07 767.068C1167.95 767.068 1175.49 773.263 1178.3 781.924C1180.26 778.123 1183.22 775.7 1186.53 775.7C1190.95 775.7 1194.74 780.038 1196.39 786.218C1199.03 784.753 1202.01 783.912 1205.18 783.912C1215.87 783.912 1224.53 793.385 1224.53 805.064C1224.53 805.122 1224.53 805.166 1224.53 805.224C1234.56 795.547 1249.62 789.367 1266.47 789.367C1275.39 789.367 1283.81 791.108 1291.25 794.183C1289.74 782.765 1293.1 772.204 1300.81 767.329C1308.48 762.483 1318.48 764.543 1326.75 771.623C1337.58 745.494 1361.64 727.315 1389.58 727.315C1409.46 727.315 1427.42 736.572 1440 751.355Z" fill="#896D00"/>
<path d="M1000.58 577.089H441.906V816.119H1000.58V577.089Z" fill="#CC5745"/>
<path d="M1008.49 731.754H431.954V737.391H1008.49V731.754Z" fill="#FCAF79"/>
<path d="M1018.44 672.701H422.016V678.339H1018.44V672.701Z" fill="#FCAF79"/>
<path d="M998.551 566.863H441.907L422.016 672.701H1018.44L998.551 566.863Z" fill="#783526"/>
<path d="M998.551 566.863H441.907L439.562 579.333H1000.89L998.551 566.863Z" fill="#5C281D"/>
<path d="M1000.58 791.065H441.906V816.119H1000.58V791.065Z" fill="#EB9B6A"/>
<path d="M811.958 617.502H630.513V816.119H811.958V617.502Z" fill="#D36147"/>
<path d="M754.918 680.266H685.553V779.905H754.918V680.266Z" fill="#DEB2A9"/>
<path d="M803.184 617.502H639.286V642.987H803.184V617.502Z" fill="#B6513D"/>
<path d="M721.25 502L624.789 617.503H630.513H811.972H817.696L721.25 502Z" fill="#5C281D"/>
<path d="M630.513 617.502L721.25 512.254L811.972 617.502H630.513Z" fill="#F04848"/>
<path d="M648.059 617.502H630.513V806.929H648.059V617.502Z" fill="#FCBC90"/>
<path d="M811.972 617.502H794.426V806.929H811.972V617.502Z" fill="#FCBC90"/>
<path d="M653.798 771.865H624.789V816.119H653.798V771.865Z" fill="#FCD89C"/>
<path d="M817.696 771.865H788.687V816.119H817.696V771.865Z" fill="#FCD89C"/>
<path d="M653.798 617.502H624.789V626.693H653.798V617.502Z" fill="#F8EABD"/>
<path d="M817.696 617.502H788.687V626.693H817.696V617.502Z" fill="#F8EABD"/>
<path d="M750.934 684.25H689.523V779.905H750.934V684.25Z" fill="#5C5A49"/>
<path d="M788.687 803.592H653.798V816.119H788.687V803.592Z" fill="#ADB6BB"/>
<path d="M788.687 798.041H653.798V803.592H788.687V798.041Z" fill="#C3D0D9"/>
<path d="M788.687 785.514H653.798V798.041H788.687V785.514Z" fill="#ADB6BB"/>
<path d="M788.687 779.962H653.798V785.514H788.687V779.962Z" fill="#C3D0D9"/>
<path d="M653.798 771.865H624.789V776.842H653.798V771.865Z" fill="#F8EABD"/>
<path d="M817.696 771.865H788.687V776.842H817.696V771.865Z" fill="#F8EABD"/>
<path d="M716.935 694.03H699.044V738.427H716.935V694.03Z" fill="#62C1AB"/>
<path d="M743.441 694.03H725.55V738.427H743.441V694.03Z" fill="#62C1AB"/>
<path d="M716.935 746.869H699.044V758.634H716.935V746.869Z" fill="#62C1AB"/>
<path d="M743.441 746.869H725.55V758.634H743.441V746.869Z" fill="#62C1AB"/>
<path d="M585.152 743.375H557.193V784.709H585.152V743.375Z" fill="#7A2544"/>
<path d="M583.182 745.359H559.192V782.724H583.182V745.359Z" fill="#50B7A4"/>
<path opacity="0.1" d="M578.09 745.359L565.909 782.724H559.192V745.359H578.09Z" fill="white"/>
<path opacity="0.1" d="M583.167 754.118L576.35 782.724H583.167V754.118Z" fill="white"/>
<path d="M572.007 745.359H570.353V782.724H572.007V745.359Z" fill="#7A2544"/>
<path d="M583.173 764.864V763.21H559.183V764.864H583.173Z" fill="#7A2544"/>
<path d="M542.524 743.375H514.565V784.709H542.524V743.375Z" fill="#7A2544"/>
<path d="M540.553 745.359H516.564V782.724H540.553V745.359Z" fill="#50B7A4"/>
<path opacity="0.1" d="M535.462 745.359L523.28 782.724H516.564V745.359H535.462Z" fill="white"/>
<path opacity="0.1" d="M540.539 754.118L533.722 782.724H540.539V754.118Z" fill="white"/>
<path d="M529.378 745.359H527.724V782.724H529.378V745.359Z" fill="#7A2544"/>
<path d="M540.544 764.865V763.211H516.554V764.865H540.544Z" fill="#7A2544"/>
<path d="M499.895 743.375H471.936V784.709H499.895V743.375Z" fill="#7A2544"/>
<path d="M497.925 745.359H473.935V782.724H497.925V745.359Z" fill="#50B7A4"/>
<path opacity="0.1" d="M492.833 745.359L480.652 782.724H473.935V745.359H492.833Z" fill="white"/>
<path opacity="0.1" d="M497.91 754.118L491.093 782.724H497.91V754.118Z" fill="white"/>
<path d="M486.75 745.359H485.096V782.724H486.75V745.359Z" fill="#7A2544"/>
<path d="M497.915 764.866V763.212H473.925V764.866H497.915Z" fill="#7A2544"/>
<path d="M968.521 743.375H940.562V784.709H968.521V743.375Z" fill="#7A2544"/>
<path d="M966.536 745.359H942.547V782.724H966.536V745.359Z" fill="#50B7A4"/>
<path opacity="0.1" d="M961.445 745.359L949.263 782.724H942.547V745.359H961.445Z" fill="white"/>
<path opacity="0.1" d="M966.522 754.118L959.705 782.724H966.522V754.118Z" fill="white"/>
<path d="M955.361 745.359H953.707V782.724H955.361V745.359Z" fill="#7A2544"/>
<path d="M966.528 764.863V763.209H942.538V764.863H966.528Z" fill="#7A2544"/>
<path d="M925.878 743.375H897.919V784.709H925.878V743.375Z" fill="#7A2544"/>
<path d="M923.908 745.359H899.918V782.724H923.908V745.359Z" fill="#50B7A4"/>
<path opacity="0.1" d="M918.816 745.359L906.635 782.724H899.918V745.359H918.816Z" fill="white"/>
<path opacity="0.1" d="M923.893 754.118L917.076 782.724H923.893V754.118Z" fill="white"/>
<path d="M912.733 745.359H911.079V782.724H912.733V745.359Z" fill="#7A2544"/>
<path d="M923.899 764.864V763.21H899.91V764.864H923.899Z" fill="#7A2544"/>
<path d="M883.25 743.375H855.291V784.709H883.25V743.375Z" fill="#7A2544"/>
<path d="M881.279 745.359H857.29V782.724H881.279V745.359Z" fill="#50B7A4"/>
<path opacity="0.1" d="M876.188 745.359L864.006 782.724H857.29V745.359H876.188Z" fill="white"/>
<path opacity="0.1" d="M881.265 754.118L874.448 782.724H881.265V754.118Z" fill="white"/>
<path d="M870.104 745.359H868.45V782.724H870.104V745.359Z" fill="#7A2544"/>
<path d="M881.27 764.865V763.211H857.28V764.865H881.27Z" fill="#7A2544"/>
<path d="M585.152 684.451H557.193V725.785H585.152V684.451Z" fill="#7A2544"/>
<path d="M583.182 686.436H559.192V723.8H583.182V686.436Z" fill="#50B7A4"/>
<path opacity="0.1" d="M578.09 686.436L565.909 723.8H559.192V686.436H578.09Z" fill="white"/>
<path opacity="0.1" d="M583.167 695.209L576.35 723.801H583.167V695.209Z" fill="white"/>
<path d="M572.007 686.436H570.353V723.8H572.007V686.436Z" fill="#7A2544"/>
<path d="M583.175 705.944V704.29H559.186V705.944H583.175Z" fill="#7A2544"/>
<path d="M542.524 684.451H514.565V725.785H542.524V684.451Z" fill="#7A2544"/>
<path d="M540.553 686.436H516.564V723.8H540.553V686.436Z" fill="#50B7A4"/>
<path opacity="0.1" d="M535.462 686.436L523.28 723.8H516.564V686.436H535.462Z" fill="white"/>
<path opacity="0.1" d="M540.539 695.209L533.722 723.801H540.539V695.209Z" fill="white"/>
<path d="M529.378 686.436H527.724V723.8H529.378V686.436Z" fill="#7A2544"/>
<path d="M540.546 705.944V704.29H516.557V705.944H540.546Z" fill="#7A2544"/>
<path d="M499.895 684.451H471.936V725.785H499.895V684.451Z" fill="#7A2544"/>
<path d="M497.925 686.436H473.935V723.8H497.925V686.436Z" fill="#50B7A4"/>
<path opacity="0.1" d="M492.833 686.436L480.652 723.8H473.935V686.436H492.833Z" fill="white"/>
<path opacity="0.1" d="M497.91 695.209L491.093 723.801H497.91V695.209Z" fill="white"/>
<path d="M486.75 686.436H485.096V723.8H486.75V686.436Z" fill="#7A2544"/>
<path d="M497.917 705.945V704.291H473.928V705.945H497.917Z" fill="#7A2544"/>
<path d="M968.521 684.451H940.562V725.785H968.521V684.451Z" fill="#7A2544"/>
<path d="M966.536 686.436H942.547V723.8H966.536V686.436Z" fill="#50B7A4"/>
<path opacity="0.1" d="M961.445 686.436L949.263 723.8H942.547V686.436H961.445Z" fill="white"/>
<path opacity="0.1" d="M966.522 695.209L959.705 723.801H966.522V695.209Z" fill="white"/>
<path d="M955.361 686.436H953.707V723.8H955.361V686.436Z" fill="#7A2544"/>
<path d="M966.531 705.943V704.289H942.541V705.943H966.531Z" fill="#7A2544"/>
<path d="M925.878 684.451H897.919V725.785H925.878V684.451Z" fill="#7A2544"/>
<path d="M923.908 686.436H899.918V723.8H923.908V686.436Z" fill="#50B7A4"/>
<path opacity="0.1" d="M918.816 686.436L906.635 723.8H899.918V686.436H918.816Z" fill="white"/>
<path opacity="0.1" d="M923.893 695.209L917.076 723.801H923.893V695.209Z" fill="white"/>
<path d="M912.733 686.436H911.079V723.8H912.733V686.436Z" fill="#7A2544"/>
<path d="M923.901 705.943V704.289H899.912V705.943H923.901Z" fill="#7A2544"/>
<path d="M883.25 684.451H855.291V725.785H883.25V684.451Z" fill="#7A2544"/>
<path d="M881.279 686.436H857.29V723.8H881.279V686.436Z" fill="#50B7A4"/>
<path opacity="0.1" d="M876.188 686.436L864.006 723.8H857.29V686.436H876.188Z" fill="white"/>
<path opacity="0.1" d="M881.265 695.209L874.448 723.801H881.265V695.209Z" fill="white"/>
<path d="M870.104 686.436H868.45V723.8H870.104V686.436Z" fill="#7A2544"/>
<path d="M881.272 705.944V704.29H857.283V705.944H881.272Z" fill="#7A2544"/>
<path opacity="0.1" d="M699.044 694.03V738.427L716.935 694.03H699.044Z" fill="white"/>
<path opacity="0.1" d="M743.441 694.03L725.55 738.427V694.03H743.441Z" fill="white"/>
<path opacity="0.1" d="M716.935 746.869V758.634H707.99L712.462 746.869H716.935Z" fill="white"/>
<path opacity="0.1" d="M743.441 746.869V758.634H734.496L738.968 746.869H743.441Z" fill="white"/>
<path d="M757.593 647.561H684.906V668.127H757.593V647.561Z" fill="#7A2544"/>
<path d="M719.883 649.546H686.891V666.128H719.883V649.546Z" fill="#50B7A4"/>
<path d="M755.594 649.546H723.91V666.128H755.594V649.546Z" fill="#50B7A4"/>
<path opacity="0.1" d="M686.891 649.546V666.128H700.842L705.818 649.546H686.891Z" fill="white"/>
<path opacity="0.1" d="M719.883 649.546L714.763 666.128H719.883V649.546Z" fill="white"/>
<path opacity="0.1" d="M723.91 649.546V666.128H737.861L742.837 649.546H723.91Z" fill="white"/>
<path opacity="0.1" d="M755.594 649.546L750.474 666.128H755.594V649.546Z" fill="white"/>
<path d="M730.364 587.573C736.155 581.783 736.155 572.394 730.364 566.604C724.574 560.813 715.185 560.813 709.394 566.604C703.604 572.394 703.604 581.783 709.394 587.573C715.185 593.364 724.574 593.364 730.364 587.573Z" fill="#FFC33A"/>
<path d="M509.962 779.617C492.833 779.617 478.955 795.97 478.955 816.148H540.97C540.97 795.984 527.077 779.617 509.962 779.617Z" fill="#7A8535"/>
<path d="M543.329 794.805C535.591 794.805 529.321 804.369 529.321 816.148H557.337C557.337 804.369 551.067 794.805 543.329 794.805Z" fill="#7A8535"/>
<path d="M455.915 794.805C448.177 794.805 441.906 804.369 441.906 816.148H469.923C469.923 804.369 463.652 794.805 455.915 794.805Z" fill="#7A8535"/>
<path d="M596.442 785.514C586.446 785.514 578.349 799.235 578.349 816.162H614.549C614.535 799.235 606.437 785.514 596.442 785.514Z" fill="#7A8535"/>
<path d="M475.1 800.817C468.657 800.817 463.451 807.691 463.451 816.162H486.764C486.75 807.691 481.529 800.817 475.1 800.817Z" fill="#7A8535"/>
<path d="M561.882 809.561C558.085 809.561 555.021 812.524 555.021 816.177H568.742C568.756 812.524 565.679 809.561 561.882 809.561Z" fill="#7A8535"/>
<path d="M617.929 809.561C614.132 809.561 611.069 812.524 611.069 816.177H624.789C624.789 812.524 621.711 809.561 617.929 809.561Z" fill="#7A8535"/>
<path d="M574.437 800.817C570.396 800.817 567.131 807.691 567.131 816.177H581.744C581.744 807.691 578.479 800.817 574.437 800.817Z" fill="#7A8535"/>
<path d="M932.537 779.617C949.666 779.617 963.544 795.97 963.544 816.148H901.529C901.514 795.984 915.408 779.617 932.537 779.617Z" fill="#7A8535"/>
<path d="M899.156 794.805C906.893 794.805 913.164 804.369 913.164 816.148H885.148C885.148 804.369 891.418 794.805 899.156 794.805Z" fill="#7A8535"/>
<path d="M986.57 794.805C994.308 794.805 1000.58 804.369 1000.58 816.148H972.562C972.562 804.369 978.833 794.805 986.57 794.805Z" fill="#7A8535"/>
<path d="M846.057 785.514C856.053 785.514 864.15 799.235 864.15 816.162H827.95C827.95 799.235 836.062 785.514 846.057 785.514Z" fill="#7A8535"/>
<path d="M967.385 800.817C973.828 800.817 979.034 807.691 979.034 816.162H955.721C955.735 807.691 960.956 800.817 967.385 800.817Z" fill="#7A8535"/>
<path d="M880.603 809.561C884.4 809.561 887.463 812.524 887.463 816.177H873.743C873.743 812.524 876.806 809.561 880.603 809.561Z" fill="#7A8535"/>
<path d="M824.556 809.561C828.353 809.561 831.416 812.524 831.416 816.177H817.696C817.696 812.524 820.774 809.561 824.556 809.561Z" fill="#7A8535"/>
<path d="M868.048 800.817C872.089 800.817 875.354 807.691 875.354 816.177H860.741C860.741 807.691 864.006 800.817 868.048 800.817Z" fill="#7A8535"/>
<path d="M533.722 591.917H529.321V816.162H533.722V591.917Z" fill="#39262C"/>
<path d="M538.799 771.865H524.258V816.162H538.799V771.865Z" fill="#6A5B5E"/>
<path d="M585.756 633.193C568.411 624.147 551.067 642.24 533.722 633.193C533.722 623.14 533.722 613.087 533.722 603.034C551.067 612.08 568.411 593.988 585.756 603.034C585.756 613.087 585.756 623.14 585.756 633.193Z" fill="#FFF4D4"/>
<path d="M531.521 601.38C534.698 601.38 537.274 598.805 537.274 595.627C537.274 592.45 534.698 589.875 531.521 589.875C528.344 589.875 525.768 592.45 525.768 595.627C525.768 598.805 528.344 601.38 531.521 601.38Z" fill="#39262C"/>
<path d="M586 617C568.667 612.398 550.833 621.102 533.5 616.5C533.5 611.386 533.5 608.114 533.5 603C550.833 607.602 568.667 596.726 586 601.329C586 606.443 586 611.886 586 617Z" fill="#FF4E4E"/>
<path d="M1440 816.173H0V960H1440V816.173Z" fill="#B9AA11"/>
<path d="M1440 816.173H0V833.357H1440V816.173Z" fill="#F1C274"/>
<path d="M0 833.376H1440V860.736L1.4016 888.096L3.0144 845.914" fill="#9B8C0F"/>
<path d="M533.818 960L1439.81 917.222L1440 960H533.818Z" fill="#AB9A11"/>
<path d="M1.4016 917.222L1439.81 888.096V898.56L86.5344 960H0L1.4016 917.222Z" fill="#AB9A11"/>
</g>
<defs>
<linearGradient id="paint0_linear_448_426" x1="720" y1="0" x2="720" y2="1059.5" gradientUnits="userSpaceOnUse">
<stop stop-color="#FFF7D1"/>
<stop offset="0.338542" stop-color="#FFE776"/>
<stop offset="1" stop-color="#FFA751"/>
</linearGradient>
<linearGradient id="paint1_linear_448_426" x1="552" y1="391" x2="552" y2="918" gradientUnits="userSpaceOnUse">
<stop stop-color="#FFF386"/>
<stop offset="1" stop-color="#FFE486"/>
</linearGradient>
<linearGradient id="paint2_linear_448_426" x1="1586" y1="391" x2="1586" y2="918" gradientUnits="userSpaceOnUse">
<stop stop-color="#FFF386"/>
<stop offset="1" stop-color="#FFE486"/>
</linearGradient>
<clipPath id="clip0_448_426">
<rect width="1440" height="960" fill="white"/>
</clipPath>
</defs>
</svg>
