<svg width="1440" height="960" viewBox="0 0 1440 960" fill="none" xmlns="http://www.w3.org/2000/svg">
<g clip-path="url(#clip0_448_495)">
<rect width="1440" height="960" fill="white"/>
<path d="M1440 0H0V960H1440V0Z" fill="url(#paint0_linear_448_495)"/>
<path d="M492.299 491.644H446.944V507.596H492.299V491.644Z" fill="#5E5E5E"/>
<path d="M584.102 496.857H544.169V509.551H584.102V496.857Z" fill="#5E5E5E"/>
<path d="M593.538 476.578H534.734L539.765 471H588.508L593.538 476.578Z" fill="#5E5E5E"/>
<path d="M1032.17 472.851H625.782L593.069 502.722H408.393C406.167 502.722 404.032 503.606 402.458 505.18C400.884 506.754 400 508.889 400 511.115V847.468C400 849.694 400.884 851.829 402.458 853.403C404.032 854.977 406.167 855.861 408.393 855.861H1032.17C1034.4 855.861 1036.53 854.977 1038.11 853.403C1039.68 851.829 1040.57 849.694 1040.57 847.468V481.27C1040.57 479.041 1039.68 476.904 1038.11 475.326C1036.54 473.748 1034.4 472.857 1032.17 472.851V472.851Z" fill="#5E5E5E"/>
<path opacity="0.6" d="M1032.17 472.851H625.782L593.069 502.722H408.393C406.167 502.722 404.032 503.606 402.458 505.18C400.884 506.754 400 508.889 400 511.115V847.468C400 849.694 400.884 851.829 402.458 853.403C404.032 854.977 406.167 855.861 408.393 855.861H1032.17C1034.4 855.861 1036.53 854.977 1038.11 853.403C1039.68 851.829 1040.57 849.694 1040.57 847.468V481.27C1040.57 479.041 1039.68 476.904 1038.11 475.326C1036.54 473.748 1034.4 472.857 1032.17 472.851V472.851Z" fill="white"/>
<path d="M1040.57 568.225H400V841.238H1040.57V568.225Z" fill="#5E5E5E"/>
<path opacity="0.2" d="M1040.57 481.27V847.468C1040.56 849.692 1039.67 851.823 1038.1 853.395C1036.53 854.968 1034.4 855.854 1032.17 855.861H931.559C933.783 855.854 935.914 854.968 937.486 853.395C939.059 851.823 939.945 849.692 939.952 847.468V481.27C939.952 479.041 939.069 476.904 937.496 475.326C935.922 473.748 933.787 472.857 931.559 472.851H1032.17C1034.4 472.857 1036.54 473.748 1038.11 475.326C1039.68 476.904 1040.57 479.041 1040.57 481.27V481.27Z" fill="black"/>
<path d="M892.903 487.891H819.242C814.851 487.891 811.292 491.45 811.292 495.841V548.598C811.292 552.989 814.851 556.548 819.242 556.548H892.903C897.294 556.548 900.853 552.989 900.853 548.598V495.841C900.853 491.45 897.294 487.891 892.903 487.891Z" fill="#263238"/>
<path opacity="0.4" d="M888.655 491.644H823.36C819.459 491.644 816.296 494.807 816.296 498.708V545.47C816.296 549.371 819.459 552.534 823.36 552.534H888.655C892.556 552.534 895.718 549.371 895.718 545.47V498.708C895.718 494.807 892.556 491.644 888.655 491.644Z" fill="black"/>
<path opacity="0.4" d="M887.508 500.871H840.85C838.057 500.871 835.793 503.135 835.793 505.928V539.344C835.793 542.137 838.057 544.401 840.85 544.401H887.508C890.301 544.401 892.565 542.137 892.565 539.344V505.928C892.565 503.135 890.301 500.871 887.508 500.871Z" fill="black"/>
<path opacity="0.2" d="M839.234 532.932V509.264C839.234 508.151 839.677 507.084 840.464 506.297C841.251 505.51 842.318 505.068 843.431 505.068H872.103C872.103 505.068 861.104 525.738 839.234 532.932Z" fill="white"/>
<path opacity="0.4" d="M727.829 487.76H674.29C671.67 487.76 669.546 489.884 669.546 492.504V500.22C669.546 502.84 671.67 504.964 674.29 504.964H727.829C730.449 504.964 732.573 502.84 732.573 500.22V492.504C732.573 489.884 730.449 487.76 727.829 487.76Z" fill="black"/>
<path opacity="0.6" d="M728.663 491.748H673.456V500.95H728.663V491.748Z" fill="white"/>
<path opacity="0.4" d="M637.85 505.068C642.63 505.068 646.504 501.193 646.504 496.414C646.504 491.635 642.63 487.76 637.85 487.76C633.071 487.76 629.196 491.635 629.196 496.414C629.196 501.193 633.071 505.068 637.85 505.068Z" fill="black"/>
<path opacity="0.3" d="M562.963 563.585C562.32 563.585 561.669 563.533 561.008 563.429C560.143 563.531 559.273 563.583 558.402 563.585H557.88C552.186 563.387 546.767 561.089 542.666 557.133C538.566 553.177 536.074 547.843 535.672 542.159C535.313 536.857 536.817 531.595 539.925 527.283C543.033 522.971 547.549 519.88 552.693 518.544V513.331C552.7 511.784 553.317 510.303 554.411 509.21C555.504 508.116 556.986 507.499 558.532 507.492H563.563C565.109 507.499 566.59 508.116 567.684 509.21C568.777 510.303 569.394 511.784 569.401 513.331V518.544C574.802 519.941 579.506 523.263 582.63 527.885C585.754 532.506 587.082 538.11 586.365 543.642C585.647 549.174 582.934 554.254 578.736 557.926C574.537 561.599 569.141 563.611 563.563 563.585H562.963Z" fill="black"/>
<path d="M566.926 520.577V513.279C566.926 512.401 566.577 511.559 565.956 510.938C565.335 510.317 564.493 509.968 563.615 509.968H558.585C557.707 509.968 556.865 510.317 556.244 510.938C555.623 511.559 555.274 512.401 555.274 513.279V520.577C550.277 521.389 545.763 524.034 542.611 527.996C539.459 531.958 537.896 536.951 538.227 542.003C538.602 547.053 540.824 551.787 544.468 555.302C548.113 558.817 552.925 560.866 557.985 561.057C559.004 561.084 560.024 561.032 561.035 560.901C561.691 560.993 562.353 561.045 563.016 561.057C568.175 561.196 573.195 559.372 577.062 555.954C580.929 552.536 583.355 547.778 583.851 542.641C584.348 537.504 582.877 532.369 579.735 528.274C576.594 524.179 572.016 521.429 566.926 520.577V520.577Z" fill="#5E5E5E"/>
<path opacity="0.4" d="M566.926 520.577V513.279C566.926 512.401 566.577 511.559 565.956 510.938C565.335 510.317 564.493 509.968 563.615 509.968H558.585C557.707 509.968 556.865 510.317 556.244 510.938C555.623 511.559 555.274 512.401 555.274 513.279V520.577C550.277 521.389 545.763 524.034 542.611 527.996C539.459 531.958 537.896 536.951 538.227 542.003C538.602 547.053 540.824 551.787 544.468 555.302C548.113 558.817 552.925 560.866 557.985 561.057C559.004 561.084 560.024 561.032 561.035 560.901C561.691 560.993 562.353 561.045 563.016 561.057C568.175 561.196 573.195 559.372 577.062 555.954C580.929 552.536 583.355 547.778 583.851 542.641C584.348 537.504 582.877 532.369 579.735 528.274C576.594 524.179 572.016 521.429 566.926 520.577V520.577Z" fill="white"/>
<path opacity="0.4" d="M561.895 520.577V513.279C561.895 512.844 561.809 512.413 561.643 512.012C561.477 511.61 561.233 511.245 560.925 510.938C560.618 510.63 560.253 510.387 559.851 510.22C559.45 510.054 559.019 509.968 558.585 509.968V509.968C557.707 509.968 556.865 510.317 556.244 510.938C555.623 511.559 555.274 512.401 555.274 513.279V520.577C550.277 521.389 545.763 524.034 542.611 527.996C539.459 531.958 537.896 536.951 538.227 542.003C538.404 547.416 540.723 552.537 544.675 556.24C548.627 559.943 553.889 561.924 559.301 561.748C564.714 561.572 569.836 559.252 573.538 555.3C577.241 551.348 579.223 546.087 579.046 540.674C579.039 535.833 577.31 531.153 574.167 527.47C571.025 523.788 566.675 521.345 561.895 520.577V520.577Z" fill="white"/>
<path opacity="0.3" d="M527.566 547.946V532.229C527.566 531.077 526.632 530.143 525.481 530.143H466.572C465.42 530.143 464.487 531.077 464.487 532.229V547.946C464.487 549.098 465.42 550.032 466.572 550.032H525.481C526.632 550.032 527.566 549.098 527.566 547.946Z" fill="black"/>
<path d="M525.064 532.646H467.015V547.503H525.064V532.646Z" fill="#5E5E5E"/>
<path opacity="0.4" d="M525.064 532.646H467.015V547.503H525.064V532.646Z" fill="white"/>
<path opacity="0.6" d="M491.856 533.401H481.039V546.825H491.856V533.401Z" fill="white"/>
<path opacity="0.6" d="M493.341 546.851H498.815V533.427H493.341V546.851Z" fill="white"/>
<path opacity="0.6" d="M500.9 546.851H505.54V533.427H500.9V546.851Z" fill="white"/>
<path opacity="0.6" d="M508.459 546.851H511.613V533.427H508.459V546.851Z" fill="white"/>
<path opacity="0.6" d="M517.556 546.851H519.146V533.427H517.556V546.851Z" fill="white"/>
<path opacity="0.6" d="M473.974 546.851H479.448V533.427H473.974V546.851Z" fill="white"/>
<path opacity="0.6" d="M468.188 546.851H472.072V533.427H468.188V546.851Z" fill="white"/>
<path d="M595.128 475.379H533.17V499.307H595.128V475.379Z" fill="#5E5E5E"/>
<path opacity="0.4" d="M595.128 475.379H533.17V499.307H595.128V475.379Z" fill="white"/>
<path opacity="0.6" d="M559.679 476.578H548.132V498.187H559.679V476.578Z" fill="white"/>
<path opacity="0.6" d="M561.269 498.187H567.108V476.578H561.269V498.187Z" fill="white"/>
<path opacity="0.6" d="M569.349 498.187H574.302V476.578H569.349V498.187Z" fill="white"/>
<path opacity="0.6" d="M577.378 498.187H580.766V476.578H577.378V498.187Z" fill="white"/>
<path opacity="0.6" d="M587.127 498.187H588.821V476.578H587.127V498.187Z" fill="white"/>
<path opacity="0.6" d="M540.573 498.187H546.412V476.578H540.573V498.187Z" fill="white"/>
<path opacity="0.6" d="M534.421 498.187H538.565V476.578H534.421V498.187Z" fill="white"/>
<path d="M500.588 480.123H438.629V499.307H500.588V480.123Z" fill="#5E5E5E"/>
<path opacity="0.4" d="M500.588 480.123H438.629V499.307H500.588V480.123Z" fill="white"/>
<path opacity="0.6" d="M465.138 481.087H453.591V498.421H465.138V481.087Z" fill="white"/>
<path opacity="0.6" d="M466.755 498.395H472.593V481.061H466.755V498.395Z" fill="white"/>
<path opacity="0.6" d="M474.809 498.395H479.761V481.061H474.809V498.395Z" fill="white"/>
<path opacity="0.6" d="M482.837 498.395H486.226V481.061H482.837V498.395Z" fill="white"/>
<path opacity="0.6" d="M492.585 498.395H494.28V481.061H492.585V498.395Z" fill="white"/>
<path opacity="0.6" d="M446.058 498.395H451.897V481.061H446.058V498.395Z" fill="white"/>
<path opacity="0.6" d="M439.881 498.395H444.025V481.061H439.881V498.395Z" fill="white"/>
<path d="M689.851 811.158C764.09 811.158 824.272 747.592 824.272 669.178C824.272 590.764 764.09 527.198 689.851 527.198C615.613 527.198 555.43 590.764 555.43 669.178C555.43 747.592 615.613 811.158 689.851 811.158Z" fill="#5E5E5E"/>
<path opacity="0.2" d="M689.851 811.158C764.09 811.158 824.272 747.592 824.272 669.178C824.272 590.764 764.09 527.198 689.851 527.198C615.613 527.198 555.43 590.764 555.43 669.178C555.43 747.592 615.613 811.158 689.851 811.158Z" fill="black"/>
<path d="M689.851 531.368H639.544C567.472 531.368 509.059 593.066 509.059 669.178C509.059 745.29 567.472 806.988 639.544 806.988H689.851C761.923 806.988 820.337 745.29 820.337 669.178C820.337 593.066 761.923 531.368 689.851 531.368Z" fill="#5E5E5E"/>
<path opacity="0.3" d="M689.851 531.368H639.544C567.472 531.368 509.059 593.066 509.059 669.178C509.059 745.29 567.472 806.988 639.544 806.988H689.851C761.923 806.988 820.337 745.29 820.337 669.178C820.337 593.066 761.923 531.368 689.851 531.368Z" fill="white"/>
<path opacity="0.6" d="M639.544 806.988C711.609 806.988 770.03 745.288 770.03 669.178C770.03 593.068 711.609 531.368 639.544 531.368C567.479 531.368 509.059 593.068 509.059 669.178C509.059 745.288 567.479 806.988 639.544 806.988Z" fill="white"/>
<path d="M638.606 540.752H591.688C524.516 540.752 470.091 598.253 470.091 669.178C470.091 740.103 524.516 797.604 591.688 797.604H638.606C705.751 797.604 760.203 740.103 760.203 669.178C760.203 598.253 705.751 540.752 638.606 540.752Z" fill="#5E5E5E"/>
<path opacity="0.3" d="M638.606 540.752H591.688C524.516 540.752 470.091 598.253 470.091 669.178C470.091 740.103 524.516 797.604 591.688 797.604H638.606C705.751 797.604 760.203 740.103 760.203 669.178C760.203 598.253 705.751 540.752 638.606 540.752Z" fill="white"/>
<path opacity="0.6" d="M591.74 797.604C658.896 797.604 713.337 740.106 713.337 669.178C713.337 598.25 658.896 540.752 591.74 540.752C524.584 540.752 470.143 598.25 470.143 669.178C470.143 740.106 524.584 797.604 591.74 797.604Z" fill="white"/>
<path d="M591.714 784.91C531.606 784.91 482.603 733.065 482.603 669.178C482.603 605.291 531.502 553.316 591.61 553.316C651.717 553.316 700.643 605.291 700.643 669.178C700.643 733.065 651.822 784.91 591.714 784.91Z" fill="#263238"/>
<path opacity="0.4" d="M598.022 784.91C595.937 784.91 593.851 785.118 591.74 785.118C531.632 785.118 482.707 733.143 482.707 669.256C482.707 605.369 531.632 553.394 591.74 553.394C593.851 553.394 595.937 553.394 598.022 553.602C540.834 557.069 495.271 607.611 495.271 669.256C495.271 730.902 540.834 781.365 598.022 784.91Z" fill="black"/>
<path opacity="0.4" d="M599.273 767.42C548.862 767.42 507.86 723.343 507.86 669.178C507.86 615.013 548.862 570.936 599.273 570.936C649.684 570.936 690.686 615.013 690.686 669.178C690.686 723.343 649.684 767.42 599.273 767.42Z" fill="black"/>
<path d="M645.644 632.165H568.568C564.45 632.165 561.113 635.502 561.113 639.619V693.706C561.113 697.823 564.45 701.161 568.568 701.161H645.644C649.761 701.161 653.099 697.823 653.099 693.706V639.619C653.099 635.502 649.761 632.165 645.644 632.165Z" fill="#263238"/>
<path opacity="0.4" d="M599.273 747.297C559.966 747.297 527.983 712.239 527.983 669.1C527.983 625.961 559.966 590.903 599.273 590.903C638.58 590.903 670.563 625.935 670.563 669.1C670.563 712.265 638.58 747.297 599.273 747.297Z" fill="black"/>
<path opacity="0.2" d="M567.238 675.616V645.823C567.238 644.15 567.902 642.546 569.085 641.363C570.268 640.18 571.873 639.515 573.546 639.515H621.429C621.429 639.515 609.282 669.074 567.238 675.616Z" fill="white"/>
</g>
<defs>
<linearGradient id="paint0_linear_448_495" x1="720" y1="0" x2="720" y2="1059.5" gradientUnits="userSpaceOnUse">
<stop stop-color="#FFF7D1"/>
<stop offset="0.338542" stop-color="#FFE776"/>
<stop offset="1" stop-color="#FFA751"/>
</linearGradient>
<clipPath id="clip0_448_495">
<rect width="1440" height="960" fill="white"/>
</clipPath>
</defs>
</svg>
